<?xml version="1.0" standalone="no"?>
<!DOCTYPE svg PUBLIC "-//W3C//DTD SVG 20010904//EN"
 "http://www.w3.org/TR/2001/REC-SVG-20010904/DTD/svg10.dtd">
<svg version="1.0" xmlns="http://www.w3.org/2000/svg"
 width="512.000000pt" height="512.000000pt" viewBox="0 0 512.000000 512.000000"
 preserveAspectRatio="xMidYMid meet">

<g transform="translate(0.000000,512.000000) scale(0.100000,-0.100000)"
fill="#000000" stroke="none">
<path d="M1620 4674 c-46 -20 -77 -50 -103 -99 l-22 -40 -3 -1842 -2 -1843
-134 0 c-120 0 -137 -2 -177 -23 -24 -13 -57 -43 -74 -66 -27 -39 -30 -50 -30
-120 0 -66 4 -83 25 -114 14 -21 43 -50 64 -65 l39 -27 481 -3 c324 -2 493 0
518 8 147 43 191 250 76 357 -46 43 -89 53 -228 53 l-130 0 0 750 0 750 1318
2 1319 3 39 27 c76 53 108 136 90 233 -5 26 -86 142 -292 416 -175 234 -282
385 -277 392 4 7 128 174 276 372 149 197 276 374 283 392 19 45 17 120 -5
168 -23 51 -79 101 -128 114 -26 7 -459 11 -1330 11 l-1293 0 0 20 c0 58 -56
137 -122 171 -45 23 -128 25 -178 3z m2234 -886 c-108 -144 -203 -277 -210
-295 -17 -40 -18 -109 -2 -153 6 -19 97 -149 203 -289 105 -141 194 -262 199
-268 6 -10 -209 -13 -1058 -13 l-1066 0 0 640 0 640 1065 0 1065 0 -196 -262z"/>
</g>
</svg>
