<?xml version="1.0" standalone="no"?>
<!DOCTYPE svg PUBLIC "-//W3C//DTD SVG 20010904//EN"
 "http://www.w3.org/TR/2001/REC-SVG-20010904/DTD/svg10.dtd">
<svg version="1.0" xmlns="http://www.w3.org/2000/svg"
 width="128.000000pt" height="128.000000pt" viewBox="0 0 128.000000 128.000000"
 preserveAspectRatio="xMidYMid meet">

<g transform="translate(0.000000,128.000000) scale(0.100000,-0.100000)"
fill="#000000" stroke="none">
<path d="M223 1256 c-27 -23 -28 -29 -33 -132 l-5 -107 -80 -34 c-127 -54
-133 -78 -46 -173 l59 -65 -59 -62 c-84 -87 -79 -118 23 -162 l48 -20 0 -139
c0 -120 2 -141 18 -154 18 -16 472 -208 492 -208 20 0 474 192 492 208 16 13
18 34 18 153 l0 138 47 21 c103 46 108 76 24 163 l-59 62 59 65 c87 95 81 119
-46 173 l-80 34 -5 107 c-5 103 -6 109 -33 132 l-28 24 -389 0 -389 0 -28 -24z
m811 -38 c13 -18 16 -53 16 -175 0 -140 -2 -155 -20 -173 -19 -19 -33 -20
-388 -20 -302 0 -372 3 -388 14 -17 13 -19 30 -22 171 -3 130 -1 160 13 181
l15 24 380 0 379 0 15 -22z m-844 -299 c0 -42 5 -55 29 -79 l28 -29 -48 -20
-49 -20 -55 62 c-30 34 -55 65 -55 68 0 6 127 66 143 68 4 1 7 -22 7 -50z
m988 16 c34 -15 62 -30 62 -34 0 -3 -25 -34 -55 -68 l-55 -62 -49 20 -48 20
28 29 c25 24 29 37 29 80 0 38 3 51 13 47 6 -3 40 -17 75 -32z m-163 -159 l60
-29 -63 -28 c-34 -15 -132 -58 -217 -95 l-154 -67 -216 93 c-118 52 -212 96
-210 99 3 3 34 17 68 33 l62 27 305 -2 305 -2 60 -29z m-627 -156 l213 -93
-58 -59 c-31 -32 -64 -58 -73 -58 -20 0 -401 160 -419 176 -12 10 -4 22 44 74
33 33 64 59 69 56 6 -2 107 -45 224 -96z m797 39 c49 -51 56 -63 44 -73 -18
-17 -396 -176 -418 -176 -9 0 -43 26 -74 58 l-58 59 218 96 c120 52 221 96
224 96 3 1 32 -26 64 -60z m-865 -239 c95 -40 150 -58 164 -54 11 4 46 32 78
62 l58 55 0 -216 c0 -187 -2 -216 -15 -211 -8 3 -108 45 -222 93 l-208 87 -3
122 c-1 67 -1 122 1 122 3 0 69 -27 147 -60z m476 -54 c14 -4 69 14 164 54 78
33 144 60 147 60 2 0 2 -55 1 -122 l-3 -123 -180 -75 c-99 -42 -199 -84 -222
-93 l-43 -17 0 217 0 216 58 -55 c32 -30 67 -58 78 -62z"/>
<path d="M390 1170 c-47 -47 -28 -119 37 -140 48 -16 63 -28 63 -50 0 -47 -73
-51 -84 -5 -7 27 -33 34 -42 11 -7 -18 21 -72 41 -80 39 -15 83 -6 104 20 44
56 16 122 -59 141 -30 8 -35 14 -38 41 -3 26 1 32 22 38 30 7 44 -1 56 -32 13
-34 40 -31 40 4 0 62 -94 98 -140 52z"/>
<path d="M580 1045 l0 -145 48 0 c39 0 53 5 73 26 22 23 24 34 24 119 0 85 -2
96 -24 119 -20 21 -34 26 -73 26 l-48 0 0 -145z m88 93 c7 -7 12 -43 12 -93 0
-84 -9 -105 -42 -105 -16 0 -18 11 -18 105 0 94 2 105 18 105 10 0 23 -5 30
-12z"/>
<path d="M770 1045 c0 -138 1 -145 20 -145 17 0 20 7 20 43 l1 42 37 -43 c20
-23 42 -42 49 -42 29 0 21 25 -26 81 -29 34 -48 66 -44 72 4 7 26 35 51 64 42
50 47 73 17 73 -7 0 -29 -19 -49 -42 l-36 -43 0 43 c0 35 -3 42 -20 42 -19 0
-20 -7 -20 -145z"/>
</g>
</svg>
